# xmcd CD database file
#
# Track frame offsets:
#	150
#	20092
#	41647
#
# Disc length: 820 seconds
#
# Revision: 1
# Processed by: cddbd v1.5PL3 Copyright (c) Steve Scherf et al.
# Submitted via: CDex 1.50
#
DISCID=20033203
DTITLE=安室　奈美恵 - How to be a Girl
DYEAR=1997
DGENRE=JPop
TTITLE0=How to be a Girl(STRAIGHT RUN)
TTITLE1=How to be a Girl(ADULT EDUCATION MIX)
TTITLE2=How to be a Girl(INSTRUMENTAL)
EXTD=YEAR: 1997
EXTT0=
EXTT1=
EXTT2=
PLAYORDER=
